<?xml version="1.0" encoding="UTF-8" standalone="no"?>
<!DOCTYPE svg PUBLIC "-//W3C//DTD SVG 1.1//EN"
 "http://www.w3.org/Graphics/SVG/1.1/DTD/svg11.dtd">
<!-- Generated by graphviz version 2.38.0 (20140413.2041)
 -->
<!-- Title: %3 Pages: 1 -->
<svg width="809pt" height="559pt"
 viewBox="0.00 0.00 809.47 559.36" xmlns="http://www.w3.org/2000/svg" xmlns:xlink="http://www.w3.org/1999/xlink">
<g id="graph0" class="graph" transform="scale(1 1) rotate(0) translate(4 555.356)">
<title>%3</title>
<polygon fill="white" stroke="none" points="-4,4 -4,-555.356 805.474,-555.356 805.474,4 -4,4"/>
<!-- configmaps -->
<g id="node1" class="node"><title>configmaps</title>
<g id="a_node1"><a xlink:href="kubernetes-configmaps.el" xlink:title="configmaps">
<ellipse fill="none" stroke="black" cx="440.027" cy="-203.356" rx="50.7655" ry="18"/>
<text text-anchor="middle" x="440.027" y="-199.156" font-family="Times,serif" font-size="14.00">configmaps</text>
</a>
</g>
</g>
<!-- process -->
<g id="node9" class="node"><title>process</title>
<g id="a_node9"><a xlink:href="kubernetes-process.el" xlink:title="process">
<ellipse fill="none" stroke="black" cx="764.845" cy="-65.3555" rx="36.7576" ry="18"/>
<text text-anchor="middle" x="764.845" y="-61.1555" font-family="Times,serif" font-size="14.00">process</text>
</a>
</g>
</g>
<!-- configmaps&#45;&gt;process -->
<g id="edge8" class="edge"><title>configmaps&#45;&gt;process</title>
<path fill="none" stroke="gray" d="M487.467,-196.359C539.816,-187.039 626.221,-167.26 692.217,-130.356 711.385,-119.637 729.662,-102.906 742.956,-89.103"/>
<polygon fill="gray" stroke="gray" points="745.522,-91.484 749.803,-81.7927 740.412,-86.6987 745.522,-91.484"/>
</g>
<!-- utils -->
<g id="node16" class="node"><title>utils</title>
<g id="a_node16"><a xlink:href="kubernetes-utils.el" xlink:title="utils">
<ellipse fill="none" stroke="black" cx="556.155" cy="-279.356" rx="27" ry="18"/>
<text text-anchor="middle" x="556.155" y="-275.156" font-family="Times,serif" font-size="14.00">utils</text>
</a>
</g>
</g>
<!-- configmaps&#45;&gt;utils -->
<g id="edge9" class="edge"><title>configmaps&#45;&gt;utils</title>
<path fill="none" stroke="gray" d="M470.593,-217.753C477.857,-221.602 485.513,-225.93 492.365,-230.356 505.731,-238.988 519.768,-249.76 531.171,-259.004"/>
<polygon fill="gray" stroke="gray" points="529.016,-261.763 538.962,-265.413 533.463,-256.357 529.016,-261.763"/>
</g>
<!-- yaml -->
<g id="node17" class="node"><title>yaml</title>
<g id="a_node17"><a xlink:href="kubernetes-yaml.el" xlink:title="yaml">
<ellipse fill="none" stroke="black" cx="556.155" cy="-225.356" rx="27.5804" ry="18"/>
<text text-anchor="middle" x="556.155" y="-221.156" font-family="Times,serif" font-size="14.00">yaml</text>
</a>
</g>
</g>
<!-- configmaps&#45;&gt;yaml -->
<g id="edge10" class="edge"><title>configmaps&#45;&gt;yaml</title>
<path fill="none" stroke="gray" d="M485.152,-211.861C496.465,-214.042 508.494,-216.361 519.331,-218.45"/>
<polygon fill="gray" stroke="gray" points="518.812,-221.914 529.294,-220.37 520.137,-215.041 518.812,-221.914"/>
</g>
<!-- contexts -->
<g id="node2" class="node"><title>contexts</title>
<g id="a_node2"><a xlink:href="kubernetes-contexts.el" xlink:title="contexts">
<ellipse fill="none" stroke="black" cx="440.027" cy="-95.3555" rx="39.6558" ry="18"/>
<text text-anchor="middle" x="440.027" y="-91.1555" font-family="Times,serif" font-size="14.00">contexts</text>
</a>
</g>
</g>
<!-- contexts&#45;&gt;process -->
<g id="edge11" class="edge"><title>contexts&#45;&gt;process</title>
<path fill="none" stroke="gray" d="M478.692,-91.0293C514.878,-86.9503 571.106,-80.8144 619.944,-76.3555 652.834,-73.3528 690.004,-70.526 718.328,-68.49"/>
<polygon fill="gray" stroke="gray" points="718.612,-71.9787 728.338,-67.7768 718.115,-64.9964 718.612,-71.9787"/>
</g>
<!-- kubectl -->
<g id="node12" class="node"><title>kubectl</title>
<g id="a_node12"><a xlink:href="kubernetes-kubectl.el" xlink:title="kubectl">
<ellipse fill="none" stroke="black" cx="656.08" cy="-103.356" rx="36.2732" ry="18"/>
<text text-anchor="middle" x="656.08" y="-99.1555" font-family="Times,serif" font-size="14.00">kubectl</text>
</a>
</g>
</g>
<!-- contexts&#45;&gt;kubectl -->
<g id="edge12" class="edge"><title>contexts&#45;&gt;kubectl</title>
<path fill="none" stroke="gray" d="M479.791,-96.8043C516.242,-98.1666 570.823,-100.207 609.379,-101.648"/>
<polygon fill="gray" stroke="gray" points="609.677,-105.161 619.8,-102.037 609.938,-98.1659 609.677,-105.161"/>
</g>
<!-- contexts&#45;&gt;utils -->
<g id="edge13" class="edge"><title>contexts&#45;&gt;utils</title>
<path fill="none" stroke="gray" d="M471.687,-106.341C479.353,-110.353 486.93,-115.613 492.365,-122.356 529.987,-169.034 498.274,-200.502 528.365,-252.356 529.384,-254.112 530.545,-255.836 531.799,-257.51"/>
<polygon fill="gray" stroke="gray" points="529.424,-260.114 538.617,-265.382 534.716,-255.532 529.424,-260.114"/>
</g>
<!-- contexts&#45;&gt;yaml -->
<g id="edge14" class="edge"><title>contexts&#45;&gt;yaml</title>
<path fill="none" stroke="gray" d="M469.989,-107.142C477.818,-111.205 485.904,-116.291 492.365,-122.356 515.509,-144.08 533.258,-176.186 543.888,-198.765"/>
<polygon fill="gray" stroke="gray" points="540.807,-200.445 548.133,-208.098 547.178,-197.547 540.807,-200.445"/>
</g>
<!-- errors -->
<g id="node3" class="node"><title>errors</title>
<g id="a_node3"><a xlink:href="kubernetes-errors.el" xlink:title="errors">
<ellipse fill="none" stroke="black" cx="440.027" cy="-441.356" rx="30.9619" ry="18"/>
<text text-anchor="middle" x="440.027" y="-437.156" font-family="Times,serif" font-size="14.00">errors</text>
</a>
</g>
</g>
<!-- namespaces -->
<g id="node4" class="node"><title>namespaces</title>
<g id="a_node4"><a xlink:href="kubernetes-namespaces.el" xlink:title="namespaces">
<ellipse fill="none" stroke="black" cx="440.027" cy="-41.3555" rx="52.1762" ry="18"/>
<text text-anchor="middle" x="440.027" y="-37.1555" font-family="Times,serif" font-size="14.00">namespaces</text>
</a>
</g>
</g>
<!-- namespaces&#45;&gt;process -->
<g id="edge18" class="edge"><title>namespaces&#45;&gt;process</title>
<path fill="none" stroke="gray" d="M474.861,-27.8048C490.812,-22.1223 510.274,-16.1847 528.365,-13.3555 600.314,-2.10444 622.954,9.13492 692.217,-13.3555 710.13,-19.1722 727.309,-31.3383 740.351,-42.4408"/>
<polygon fill="gray" stroke="gray" points="738.105,-45.1271 747.906,-49.15 742.753,-39.893 738.105,-45.1271"/>
</g>
<!-- namespaces&#45;&gt;kubectl -->
<g id="edge19" class="edge"><title>namespaces&#45;&gt;kubectl</title>
<path fill="none" stroke="gray" d="M480.537,-52.7996C518.684,-63.8485 576.171,-80.4995 614.631,-91.6394"/>
<polygon fill="gray" stroke="gray" points="613.879,-95.0655 624.458,-94.4859 615.826,-88.3418 613.879,-95.0655"/>
</g>
<!-- pods -->
<g id="node5" class="node"><title>pods</title>
<g id="a_node5"><a xlink:href="kubernetes-pods.el" xlink:title="pods">
<ellipse fill="none" stroke="black" cx="440.027" cy="-257.356" rx="27" ry="18"/>
<text text-anchor="middle" x="440.027" y="-253.156" font-family="Times,serif" font-size="14.00">pods</text>
</a>
</g>
</g>
<!-- pods&#45;&gt;utils -->
<g id="edge29" class="edge"><title>pods&#45;&gt;utils</title>
<path fill="none" stroke="gray" d="M466.073,-262.184C481.87,-265.229 502.507,-269.207 519.94,-272.567"/>
<polygon fill="gray" stroke="gray" points="519.291,-276.007 529.773,-274.463 520.616,-269.133 519.291,-276.007"/>
</g>
<!-- pods&#45;&gt;yaml -->
<g id="edge30" class="edge"><title>pods&#45;&gt;yaml</title>
<path fill="none" stroke="gray" d="M465.231,-250.569C481.202,-246.091 502.383,-240.152 520.177,-235.163"/>
<polygon fill="gray" stroke="gray" points="521.513,-238.423 530.197,-232.353 519.623,-231.683 521.513,-238.423"/>
</g>
<!-- secrets -->
<g id="node6" class="node"><title>secrets</title>
<g id="a_node6"><a xlink:href="kubernetes-secrets.el" xlink:title="secrets">
<ellipse fill="none" stroke="black" cx="440.027" cy="-311.356" rx="34.3354" ry="18"/>
<text text-anchor="middle" x="440.027" y="-307.156" font-family="Times,serif" font-size="14.00">secrets</text>
</a>
</g>
</g>
<!-- secrets&#45;&gt;utils -->
<g id="edge31" class="edge"><title>secrets&#45;&gt;utils</title>
<path fill="none" stroke="gray" d="M470.418,-303.115C485.804,-298.801 504.732,-293.493 520.794,-288.99"/>
<polygon fill="gray" stroke="gray" points="522.184,-292.235 530.868,-286.165 520.295,-285.495 522.184,-292.235"/>
</g>
<!-- secrets&#45;&gt;yaml -->
<g id="edge32" class="edge"><title>secrets&#45;&gt;yaml</title>
<path fill="none" stroke="gray" d="M466.371,-299.742C474.922,-295.383 484.329,-290.084 492.365,-284.356 500.819,-278.33 518.565,-261.493 533.041,-247.341"/>
<polygon fill="gray" stroke="gray" points="535.569,-249.763 540.246,-240.256 530.662,-244.771 535.569,-249.763"/>
</g>
<!-- services -->
<g id="node7" class="node"><title>services</title>
<g id="a_node7"><a xlink:href="kubernetes-services.el" xlink:title="services">
<ellipse fill="none" stroke="black" cx="440.027" cy="-149.356" rx="38.6782" ry="18"/>
<text text-anchor="middle" x="440.027" y="-145.156" font-family="Times,serif" font-size="14.00">services</text>
</a>
</g>
</g>
<!-- services&#45;&gt;kubectl -->
<g id="edge33" class="edge"><title>services&#45;&gt;kubectl</title>
<path fill="none" stroke="gray" d="M475.419,-141.965C512.787,-133.934 572.524,-121.097 612.748,-112.453"/>
<polygon fill="gray" stroke="gray" points="613.487,-115.874 622.528,-110.351 612.016,-109.03 613.487,-115.874"/>
</g>
<!-- services&#45;&gt;utils -->
<g id="edge34" class="edge"><title>services&#45;&gt;utils</title>
<path fill="none" stroke="gray" d="M470.412,-160.714C478.248,-164.771 486.231,-169.96 492.365,-176.356 518.236,-203.331 506.895,-221.762 528.365,-252.356 529.532,-254.018 530.804,-255.67 532.141,-257.291"/>
<polygon fill="gray" stroke="gray" points="529.851,-259.976 539.161,-265.034 535.037,-255.275 529.851,-259.976"/>
</g>
<!-- services&#45;&gt;yaml -->
<g id="edge35" class="edge"><title>services&#45;&gt;yaml</title>
<path fill="none" stroke="gray" d="M467.393,-162.075C475.571,-166.322 484.498,-171.275 492.365,-176.356 505.638,-184.927 519.572,-195.609 530.932,-204.81"/>
<polygon fill="gray" stroke="gray" points="528.755,-207.551 538.703,-211.196 533.199,-202.143 528.755,-207.551"/>
</g>
<!-- ast -->
<g id="node8" class="node"><title>ast</title>
<g id="a_node8"><a xlink:href="kubernetes-ast.el" xlink:title="ast">
<ellipse fill="none" stroke="black" cx="764.845" cy="-252.356" rx="27" ry="18"/>
<text text-anchor="middle" x="764.845" y="-248.156" font-family="Times,serif" font-size="14.00">ast</text>
</a>
</g>
</g>
<!-- popups -->
<g id="node10" class="node"><title>popups</title>
<g id="a_node10"><a xlink:href="kubernetes-popups.el" xlink:title="popups">
<ellipse fill="none" stroke="black" cx="764.845" cy="-487.356" rx="35.8147" ry="18"/>
<text text-anchor="middle" x="764.845" y="-483.156" font-family="Times,serif" font-size="14.00">popups</text>
</a>
</g>
</g>
<!-- commands -->
<g id="node11" class="node"><title>commands</title>
<g id="a_node11"><a xlink:href="kubernetes-commands.el" xlink:title="commands">
<ellipse fill="none" stroke="black" cx="303.268" cy="-199.356" rx="48.3427" ry="18"/>
<text text-anchor="middle" x="303.268" y="-195.156" font-family="Times,serif" font-size="14.00">commands</text>
</a>
</g>
</g>
<!-- commands&#45;&gt;configmaps -->
<g id="edge1" class="edge"><title>commands&#45;&gt;configmaps</title>
<path fill="none" stroke="gray" d="M351.779,-200.766C360.588,-201.027 369.895,-201.304 379.019,-201.574"/>
<polygon fill="gray" stroke="gray" points="379.107,-205.078 389.207,-201.877 379.315,-198.082 379.107,-205.078"/>
</g>
<!-- commands&#45;&gt;contexts -->
<g id="edge2" class="edge"><title>commands&#45;&gt;contexts</title>
<path fill="none" stroke="gray" d="M320.096,-182.354C336.109,-165.756 362.09,-140.431 387.689,-122.356 392.317,-119.088 397.389,-115.953 402.488,-113.05"/>
<polygon fill="gray" stroke="gray" points="404.488,-115.947 411.603,-108.097 401.145,-109.796 404.488,-115.947"/>
</g>
<!-- commands&#45;&gt;namespaces -->
<g id="edge3" class="edge"><title>commands&#45;&gt;namespaces</title>
<path fill="none" stroke="gray" d="M311.893,-181.625C324.356,-154.354 351.384,-101.771 387.689,-68.3555 390.774,-65.5168 394.212,-62.8875 397.808,-60.4743"/>
<polygon fill="gray" stroke="gray" points="399.677,-63.4343 406.392,-55.2396 396.032,-57.4579 399.677,-63.4343"/>
</g>
<!-- commands&#45;&gt;pods -->
<g id="edge4" class="edge"><title>commands&#45;&gt;pods</title>
<path fill="none" stroke="gray" d="M335.523,-212.808C357.1,-222.094 385.692,-234.4 407.358,-243.725"/>
<polygon fill="gray" stroke="gray" points="406.205,-247.039 416.775,-247.778 408.973,-240.61 406.205,-247.039"/>
</g>
<!-- commands&#45;&gt;secrets -->
<g id="edge5" class="edge"><title>commands&#45;&gt;secrets</title>
<path fill="none" stroke="gray" d="M318.304,-216.558C333.897,-234.927 360.48,-264.119 387.689,-284.356 392.886,-288.221 398.712,-291.848 404.523,-295.112"/>
<polygon fill="gray" stroke="gray" points="403.078,-298.309 413.549,-299.927 406.373,-292.132 403.078,-298.309"/>
</g>
<!-- commands&#45;&gt;services -->
<g id="edge6" class="edge"><title>commands&#45;&gt;services</title>
<path fill="none" stroke="gray" d="M338.274,-186.738C356.95,-179.809 380.203,-171.181 399.664,-163.961"/>
<polygon fill="gray" stroke="gray" points="401.004,-167.197 409.162,-160.437 398.569,-160.634 401.004,-167.197"/>
</g>
<!-- commands&#45;&gt;popups -->
<g id="edge7" class="edge"><title>commands&#45;&gt;popups</title>
<path fill="none" stroke="gray" d="M310.616,-217.253C321.824,-246.455 347.776,-304.484 387.689,-338.356 441.008,-383.604 638.947,-448.605 724.28,-475.257"/>
<polygon fill="gray" stroke="gray" points="723.282,-478.612 733.87,-478.239 725.36,-471.928 723.282,-478.612"/>
</g>
<!-- kubectl&#45;&gt;process -->
<g id="edge15" class="edge"><title>kubectl&#45;&gt;process</title>
<path fill="none" stroke="gray" d="M685.972,-93.0722C697.98,-88.7984 712.098,-83.7734 724.992,-79.1841"/>
<polygon fill="gray" stroke="gray" points="726.311,-82.4299 734.559,-75.7793 723.964,-75.8351 726.311,-82.4299"/>
</g>
<!-- logs -->
<g id="node13" class="node"><title>logs</title>
<g id="a_node13"><a xlink:href="kubernetes-logs.el" xlink:title="logs">
<ellipse fill="none" stroke="black" cx="440.027" cy="-533.356" rx="27" ry="18"/>
<text text-anchor="middle" x="440.027" y="-529.156" font-family="Times,serif" font-size="14.00">logs</text>
</a>
</g>
</g>
<!-- logs&#45;&gt;popups -->
<g id="edge16" class="edge"><title>logs&#45;&gt;popups</title>
<path fill="none" stroke="gray" d="M466.782,-530.645C512.367,-525.721 610.188,-514.582 692.217,-501.356 701.679,-499.83 711.803,-497.984 721.371,-496.139"/>
<polygon fill="gray" stroke="gray" points="722.341,-499.516 731.479,-494.154 720.992,-492.647 722.341,-499.516"/>
</g>
<!-- logs&#45;&gt;utils -->
<g id="edge17" class="edge"><title>logs&#45;&gt;utils</title>
<path fill="none" stroke="gray" d="M455.335,-518.412C466.682,-505.885 482.262,-487.087 492.365,-468.356 521.395,-414.53 540.284,-344.863 549.187,-306.937"/>
<polygon fill="gray" stroke="gray" points="552.614,-307.65 551.433,-297.121 545.79,-306.088 552.614,-307.65"/>
</g>
<!-- overview -->
<g id="node14" class="node"><title>overview</title>
<g id="a_node14"><a xlink:href="kubernetes-overview.el" xlink:title="overview">
<ellipse fill="none" stroke="black" cx="175.836" cy="-283.356" rx="43.0215" ry="18"/>
<text text-anchor="middle" x="175.836" y="-279.156" font-family="Times,serif" font-size="14.00">overview</text>
</a>
</g>
</g>
<!-- overview&#45;&gt;configmaps -->
<g id="edge20" class="edge"><title>overview&#45;&gt;configmaps</title>
<path fill="none" stroke="gray" d="M211.113,-272.897C257.146,-258.851 339.163,-233.826 391.238,-217.937"/>
<polygon fill="gray" stroke="gray" points="392.372,-221.25 400.916,-214.984 390.329,-214.555 392.372,-221.25"/>
</g>
<!-- overview&#45;&gt;contexts -->
<g id="edge21" class="edge"><title>overview&#45;&gt;contexts</title>
<path fill="none" stroke="gray" d="M181.559,-265.454C190.523,-235.086 212.961,-173.635 254.847,-141.356 293.871,-111.281 350.122,-100.645 390.174,-97"/>
<polygon fill="gray" stroke="gray" points="390.553,-100.481 400.244,-96.1989 389.998,-93.5031 390.553,-100.481"/>
</g>
<!-- overview&#45;&gt;errors -->
<g id="edge22" class="edge"><title>overview&#45;&gt;errors</title>
<path fill="none" stroke="gray" d="M182.569,-301.36C192.482,-329.355 215.622,-382.851 254.847,-409.356 297.923,-438.462 359.204,-443.672 399.042,-443.495"/>
<polygon fill="gray" stroke="gray" points="399.237,-446.992 409.18,-443.332 399.124,-439.993 399.237,-446.992"/>
</g>
<!-- overview&#45;&gt;pods -->
<g id="edge23" class="edge"><title>overview&#45;&gt;pods</title>
<path fill="none" stroke="gray" d="M217.803,-279.293C268.658,-274.25 354.583,-265.729 403.021,-260.926"/>
<polygon fill="gray" stroke="gray" points="403.444,-264.401 413.049,-259.932 402.753,-257.436 403.444,-264.401"/>
</g>
<!-- overview&#45;&gt;secrets -->
<g id="edge24" class="edge"><title>overview&#45;&gt;secrets</title>
<path fill="none" stroke="gray" d="M217.803,-287.731C266.344,-292.914 346.837,-301.51 396.184,-306.78"/>
<polygon fill="gray" stroke="gray" points="395.903,-310.27 406.218,-307.852 396.647,-303.31 395.903,-310.27"/>
</g>
<!-- overview&#45;&gt;services -->
<g id="edge25" class="edge"><title>overview&#45;&gt;services</title>
<path fill="none" stroke="gray" d="M183.772,-265.59C194.704,-240.201 218.509,-194.198 254.847,-172.356 296.299,-147.439 352.454,-143.833 391.823,-145.114"/>
<polygon fill="gray" stroke="gray" points="391.807,-148.617 401.952,-145.563 392.117,-141.624 391.807,-148.617"/>
</g>
<!-- overview&#45;&gt;popups -->
<g id="edge26" class="edge"><title>overview&#45;&gt;popups</title>
<path fill="none" stroke="gray" d="M180.732,-301.242C188.743,-333.649 210.187,-402.073 254.847,-438.356 320.59,-491.767 354.322,-487.356 439.027,-487.356 439.027,-487.356 439.027,-487.356 557.155,-487.356 612.895,-487.356 677.091,-487.356 718.958,-487.356"/>
<polygon fill="gray" stroke="gray" points="719.103,-490.856 729.103,-487.356 719.103,-483.856 719.103,-490.856"/>
</g>
<!-- overview&#45;&gt;commands -->
<g id="edge27" class="edge"><title>overview&#45;&gt;commands</title>
<path fill="none" stroke="gray" d="M199.551,-268.144C219.37,-254.871 248.336,-235.473 270.46,-220.657"/>
<polygon fill="gray" stroke="gray" points="272.51,-223.496 278.872,-215.024 268.615,-217.68 272.51,-223.496"/>
</g>
<!-- timers -->
<g id="node15" class="node"><title>timers</title>
<g id="a_node15"><a xlink:href="kubernetes-timers.el" xlink:title="timers">
<ellipse fill="none" stroke="black" cx="656.08" cy="-356.356" rx="32.4237" ry="18"/>
<text text-anchor="middle" x="656.08" y="-352.156" font-family="Times,serif" font-size="14.00">timers</text>
</a>
</g>
</g>
<!-- overview&#45;&gt;timers -->
<g id="edge28" class="edge"><title>overview&#45;&gt;timers</title>
<path fill="none" stroke="gray" d="M208.434,-295.303C222.514,-300.363 239.379,-306.067 254.847,-310.356 312.992,-326.477 327.92,-330.087 387.689,-338.356 467.026,-349.332 560.569,-353.685 613.34,-355.36"/>
<polygon fill="gray" stroke="gray" points="613.548,-358.868 623.649,-355.669 613.758,-351.871 613.548,-358.868"/>
</g>
<!-- utils&#45;&gt;ast -->
<g id="edge36" class="edge"><title>utils&#45;&gt;ast</title>
<path fill="none" stroke="gray" d="M582.914,-275.991C619.527,-271.208 686.757,-262.426 728.153,-257.018"/>
<polygon fill="gray" stroke="gray" points="728.624,-260.486 738.086,-255.72 727.717,-253.545 728.624,-260.486"/>
</g>
<!-- utils&#45;&gt;kubectl -->
<g id="edge37" class="edge"><title>utils&#45;&gt;kubectl</title>
<path fill="none" stroke="gray" d="M573.139,-265.028C576.958,-261.144 580.827,-256.783 583.944,-252.356 611.373,-213.399 633.171,-162.219 645.088,-131.109"/>
<polygon fill="gray" stroke="gray" points="648.505,-131.968 648.745,-121.375 641.952,-129.506 648.505,-131.968"/>
</g>
<!-- utils&#45;&gt;timers -->
<g id="edge38" class="edge"><title>utils&#45;&gt;timers</title>
<path fill="none" stroke="gray" d="M574.212,-292.768C589.187,-304.543 611.215,-321.864 628.5,-335.455"/>
<polygon fill="gray" stroke="gray" points="626.529,-338.358 636.553,-341.788 630.856,-332.855 626.529,-338.358"/>
</g>
<!-- yaml&#45;&gt;ast -->
<g id="edge39" class="edge"><title>yaml&#45;&gt;ast</title>
<path fill="none" stroke="gray" d="M583.753,-228.83C620.462,-233.625 686.77,-242.287 727.874,-247.657"/>
<polygon fill="gray" stroke="gray" points="727.63,-251.154 737.999,-248.979 728.537,-244.213 727.63,-251.154"/>
</g>
<!-- kubernetes -->
<g id="node18" class="node"><title>kubernetes</title>
<g id="a_node18"><a xlink:href="kubernetes.el" xlink:title="kubernetes">
<ellipse fill="none" stroke="black" cx="48.4127" cy="-283.356" rx="48.3255" ry="18"/>
<text text-anchor="middle" x="48.4127" y="-279.156" font-family="Times,serif" font-size="14.00">kubernetes</text>
</a>
</g>
</g>
<!-- kubernetes&#45;&gt;commands -->
<g id="edge40" class="edge"><title>kubernetes&#45;&gt;commands</title>
<path fill="none" stroke="gray" d="M85.1044,-271.499C130.062,-256.563 207.373,-230.88 256.596,-214.528"/>
<polygon fill="gray" stroke="gray" points="257.963,-217.762 266.349,-211.288 255.756,-211.119 257.963,-217.762"/>
</g>
<!-- kubernetes&#45;&gt;logs -->
<g id="edge41" class="edge"><title>kubernetes&#45;&gt;logs</title>
<path fill="none" stroke="gray" d="M60.228,-301.087C87.1745,-343.569 161.877,-451.342 254.847,-501.356 301.611,-526.513 363.834,-532.584 402.652,-533.69"/>
<polygon fill="gray" stroke="gray" points="402.885,-537.195 412.948,-533.882 403.015,-530.196 402.885,-537.195"/>
</g>
<!-- kubernetes&#45;&gt;overview -->
<g id="edge42" class="edge"><title>kubernetes&#45;&gt;overview</title>
<path fill="none" stroke="gray" d="M96.8299,-283.356C105.214,-283.356 113.986,-283.356 122.497,-283.356"/>
<polygon fill="gray" stroke="gray" points="122.704,-286.856 132.704,-283.356 122.704,-279.856 122.704,-286.856"/>
</g>
</g>
</svg>
